<?xml version="1.0" encoding="iso-8859-1"?>
<!-- Generator: Adobe Illustrator 21.0.2, SVG Export Plug-In . SVG Version: 6.00 Build 0)  -->
<svg version="1.1" xmlns="http://www.w3.org/2000/svg" xmlns:xlink="http://www.w3.org/1999/xlink" x="0px" y="0px"
	 viewBox="0 0 64 64" style="enable-background:new 0 0 64 64;" xml:space="preserve">
<g id="css">
</g>
<g id="mobile_development">
</g>
<g id="code">
</g>
<g id="hardware_programming">
</g>
<g id="python">
	<g>
		<path d="M51.4111,1H20.104c-0.2394,0-0.5301,0.119-0.7017,0.2871L8.9858,11.542c-0.1734,0.1711-0.2983,0.4667-0.2983,0.7129
			v46.8438C8.6875,61.25,10.436,63,12.5854,63h38.8257c2.1514,0,3.9014-1.75,3.9014-3.9014V4.8975
			C55.3125,2.748,53.5625,1,51.4111,1z M19.104,4.3878v4.9667c0,1.0479-0.8525,1.9004-1.9009,1.9004h-5.0743L19.104,4.3878z
			 M53.3125,59.0986c0,1.0488-0.853,1.9014-1.9014,1.9014H12.5854c-1.0464,0-1.8979-0.8525-1.8979-1.9014V13.2549h6.5156
			c2.1509,0,3.9009-1.75,3.9009-3.9004V3h30.3071c1.0483,0,1.9014,0.8516,1.9014,1.8975V59.0986z"/>
		<path d="M21.855,40.4707h1.8667v1.8701c0,2.958,2.4077,5.3643,5.3672,5.3643h5.8188c2.9595,0,5.3672-2.4063,5.3672-5.3643v-1.8701
			h1.8701c2.9575,0,5.3638-2.4072,5.3638-5.3672v-5.8193c0-2.96-2.4063-5.3672-5.3638-5.3672h-1.8701v-1.8662
			c0-2.96-2.4077-5.3672-5.3672-5.3672h-5.8188c-2.9595,0-5.3672,2.4072-5.3672,5.3672v1.8662H21.855
			c-2.9595,0-5.3672,2.4072-5.3672,5.3672v5.8193C16.4878,38.0635,18.8955,40.4707,21.855,40.4707z M42.145,25.917
			c1.855,0,3.3638,1.5107,3.3638,3.3672v5.8193c0,1.8564-1.5088,3.3672-3.3638,3.3672H32c-0.5522,0-1,0.4473-1,1s0.4478,1,1,1
			h6.2749v1.8701c0,1.8555-1.5107,3.3643-3.3672,3.3643h-5.8188c-1.8564,0-3.3672-1.5088-3.3672-3.3643v-2.8701v-4.25
			c0-0.7568,0.251-2.0254,1.9321-2.0254h8.689c2.3521,0,3.9321-1.6182,3.9321-4.0273v-3.251H42.145z M18.4878,29.2842
			c0-1.8564,1.5107-3.3672,3.3672-3.3672H32c0.5522,0,1-0.4473,1-1s-0.4478-1-1-1h-6.2783v-1.8662
			c0-1.8564,1.5107-3.3672,3.3672-3.3672h5.8188c1.8564,0,3.3672,1.5107,3.3672,3.3672v2.8662v4.251
			c0,0.7568-0.251,2.0273-1.9321,2.0273h-8.689c-2.3521,0-3.9321,1.6182-3.9321,4.0254v3.25H21.855
			c-1.8564,0-3.3672-1.5107-3.3672-3.3672V29.2842z"/>
		<path d="M34.6899,43.4521c0.1533,0.3936,0.5264,0.6309,0.9233,0.6309c0.1221,0,0.2466-0.0225,0.3677-0.0703
			c0.5146-0.2002,0.7666-0.7881,0.5664-1.3027c-0.2007-0.5146-0.7803-0.7734-1.2944-0.5693
			c-0.5146,0.2002-0.77,0.7793-0.5698,1.2939L34.6899,43.4521z"/>
		<path d="M27.8389,20.4346c-0.4702,0.29-0.6157,0.9063-0.3252,1.376l0.0103,0.0166c0.1875,0.3037,0.5093,0.4688,0.8403,0.4688
			c0.1812,0,0.3647-0.0488,0.5308-0.1514c0.4697-0.29,0.6104-0.915,0.3198-1.3848C28.9248,20.29,28.3081,20.1426,27.8389,20.4346z"
			/>
		<path d="M48.3555,50.5625H15.6445c-0.5522,0-1,0.4473-1,1s0.4478,1,1,1h32.7109c0.5522,0,1-0.4473,1-1
			S48.9077,50.5625,48.3555,50.5625z"/>
		<path d="M48.3555,55.04H15.6445c-0.5522,0-1,0.4473-1,1s0.4478,1,1,1h32.7109c0.5522,0,1-0.4473,1-1S48.9077,55.04,48.3555,55.04z
			"/>
		<path d="M48.3555,6.7783H23.7637c-0.5522,0-1,0.4473-1,1s0.4478,1,1,1h24.5918c0.5522,0,1-0.4473,1-1
			S48.9077,6.7783,48.3555,6.7783z"/>
		<path d="M48.3555,11.2549H23.7637c-0.5522,0-1,0.4473-1,1s0.4478,1,1,1h24.5918c0.5522,0,1-0.4473,1-1
			S48.9077,11.2549,48.3555,11.2549z"/>
	</g>
</g>
<g id="development">
</g>
<g id="update">
</g>
<g id="maintenance">
</g>
<g id="peformance_testing">
</g>
<g id="programming">
</g>
<g id="hacker">
</g>
<g id="web_programming">
</g>
<g id="html">
</g>
<g id="typing">
</g>
<g id="search_1_">
</g>
<g id="android">
</g>
<g id="coding">
</g>
<g id="file">
</g>
<g id="api">
</g>
<g id="java">
</g>
<g id="xml">
</g>
<g id="security">
</g>
<g id="algorithm">
</g>
<g id="php">
</g>
<g id="eror">
</g>
<g id="bug">
</g>
<g id="c_x2B__x2B_">
</g>
<g id="search">
</g>
<g id="binary">
</g>
<g id="database_sql">
</g>
</svg>
